<svg xmlns="http://www.w3.org/2000/svg" viewBox="538.903 484.982 735.325 737.981" width="367.662" height="368.991"><path d="M647.063 1120.69c-133.5-137.199-145.38-345.333-24.7-494.443 61.9-76.484 149.5-126.628 247.4-138.837 92.5-11.536 183.997 18.715 256.357 76.361 22.52 14.711 57.06 47.422 71.5 69.445 63.82 79.95 84.98 168.208 73.73 269.085a361.3 361.3 0 0 1-132.74 240.899c-124.44 98.61-317.037 107.87-447.607 16.13-5.49-3.85-17.97-13.37-22.25-18.33-7.63-6.1-14.71-13.43-21.69-20.31" style="fill:#b3cae4"/><path d="M1075.2 540.371c8.02 3.35 47.03 23.739 50.92 23.4 22.52 14.711 57.06 47.422 71.5 69.445 63.82 79.95 84.98 168.208 73.73 269.085a361.3 361.3 0 0 1-132.74 240.899c-124.44 98.61-317.037 107.87-447.607 16.13-5.49-3.85-17.97-13.37-22.25-18.33-7.63-6.1-14.71-13.43-21.69-20.31l2.21-2.66c-24.93-27.59-41.41-63.05-56.63-96.56-2.84-3.86-6.86-15.65-8.63-20.36-12.99-34.759-19.67-67.199-22.05-104.309.23.23.46.45.69.68 16.97 17.28 47.28 81.92 71.52 82.88 13.27.52 18.13-10.93 27.76-16.9l.68-1.58c12.27-3.14 21.72-3.84 34.28-3.88l.44.56.89.15c9.8 1.71 19.76 5.39 29.67 7.19 31.71 5.75 66.81 6.79 98.9 3.13q16.815-1.98 33.48-5.04c4.22-.78 17.59-3.63 21-3.64 14.66-12.67 26.5-18.78 45.39-21.47 9.46-1.86 37.08-20.5 46.42-26.33 77.037-48.09 133.817-132.007 143.907-222.83.55-4.959 2.04-14.016.35-18.328 2.93-5.567 3.72-7.081 5.53-13.289 2.97-13.908.5-20.513-6.96-32.827 3.85-21.456-30.33-66.799-40.17-83.95z" fill="#a7c2ec"/><path d="M1197.62 633.216c63.82 79.95 84.98 168.208 73.73 269.085a361.3 361.3 0 0 1-132.74 240.899c-124.44 98.61-317.037 107.87-447.607 16.13-5.49-3.85-17.97-13.37-22.25-18.33-7.63-6.1-14.71-13.43-21.69-20.31l2.21-2.66c-24.93-27.59-41.41-63.05-56.63-96.56 3.1 1.74 24.41 23.77 30.47 28.63 75.33 60.54 170.15 89.69 265.91 80.99a389.8 389.8 0 0 0 263.737-139.639c15.2-18.4 26.52-37.18 37.27-58.28a338.62 338.62 0 0 0 30.11-228.547c-5.25-24.799-13.5-46.65-22.48-70.072-.01-.446-.03-.891-.04-1.336" fill="#70859d"/><path d="M649.273 1118.03c3.88 4.18 18.31 18.65 19.48 22.97-7.63-6.1-14.71-13.43-21.69-20.31z" style="fill:#adadad"/><path d="M902.973 1082.75c-13.4-13.81-21.81-26.92-22.28-46.78a64.58 64.58 0 0 1 18.37-46.159c38.5-39.84 110.707-15.04 111.917 41.299.11 5.23-1.09 10.23-1.14 15.39v1.9c-4.29 29.2-50.877 53.01-77.707 45.93-6.5-1.72-25.51-6.38-29.16-11.58" fill="#899bc6"/><path d="M926.663 938.881c25.19.3 47.45 6.42 65.66 24.93a77.96 77.96 0 0 1 22.217 56.019c-.14 10.32-1.9 18.71-4.7 28.57v-1.9c.05-5.16 1.25-10.16 1.14-15.39-1.21-56.339-73.417-81.139-111.917-41.299a64.58 64.58 0 0 0-18.37 46.159c.47 19.86 8.88 32.97 22.28 46.78-48.33-24.73-57.42-82.39-21.7-122.399 14.66-12.67 26.5-18.78 45.39-21.47" fill="#152e5b"/><path d="m696.893 958.001.44.56c.61 28.49-32.33 28.91-35.4 4.9l.68-1.58c12.27-3.14 21.72-3.84 34.28-3.88m441.157-46.55c-31.85-18.37-18.82-68.68 17.97-63.36a33.05 33.05 0 0 1 21.81 13.35c6.08 8.29 8.08 18.68 6.52 28.75-2.2 20.19-30.72 31.37-46.3 21.26" fill="#899bc6"/><path d="M1138.05 911.451c-31.85-18.37-18.82-68.68 17.97-63.36a33.05 33.05 0 0 1 21.81 13.35c6.08 8.29 8.08 18.68 6.52 28.75-3.33-15.97-12.77-30.27-31.33-25.98a28.7 28.7 0 0 0-18.13 13.13c-3.53 5.86-5.39 12.76-4.15 19.74.92 5.1 6.74 10.85 7.31 14.37" fill="#152e5b"/><path d="M1163.47 670.682c9.02-2.458 18.34 2.79 20.92 11.779s-2.54 18.383-11.49 21.085c-5.9 1.781-12.3.248-16.76-4.012a17.1 17.1 0 0 1-4.75-16.562 17.08 17.08 0 0 1 12.08-12.29" fill="#899bc6"/><path d="M647.063 1120.69c-133.5-137.199-145.38-345.333-24.7-494.443 61.9-76.484 149.5-126.628 247.4-138.837 92.5-11.536 183.997 18.715 256.357 76.361-3.89.339-42.9-20.05-50.92-23.4-10.75-5.848-28.77-10.844-40.8-14.429-67.447-19.608-146.097-23.803-213.977-4.534-93.52 26.548-172.84 96.328-218.19 181.271-27.42 51.359-41.06 99.621-41.98 157.882-.1 6.82-.4 31.12 1.71 36.24 2.38 37.11 9.06 69.55 22.05 104.309 1.77 4.71 5.79 16.5 8.63 20.36 15.22 33.51 31.7 68.97 56.63 96.56z" style="fill:#a8a6a6"/><path d="m1072.01 677.573.59-1.038c-10.33-10.451-8.52-22.323-.67-34.022 8.72-12.991 27.86-18.705 40.59-7.907 8.67 7.353 9.4 12.774 10.35 23.498-1.81 6.208-2.6 7.722-5.53 13.289-11.88 10.279-31.75 17.206-45.33 6.18" fill="#899bc6"/><path d="M1072.01 677.573c-47.16-27.649-.12-96.016 43.9-52.296 7.46 12.314 9.93 18.919 6.96 32.827-.95-10.724-1.68-16.145-10.35-23.498-12.73-10.798-31.87-5.084-40.59 7.907-7.85 11.699-9.66 23.571.67 34.022z" fill="#152e5b"/><path d="M662.613 961.881c6.9-15.96 25.55-21.16 34.28-3.88-12.56.04-22.01.74-34.28 3.88" fill="#a7c2ec"/><path d="M773.613 570.252c4.69-.389 9.63-1.058 14.24.139 6.3 1.639 10.68 6.363 13.85 11.863 25.2 43.677-111.08 145.283-137.14 178.283-15.35 19.429-22.7 39.877-29.46 63.373l-2.88 12.439c-8.44-6.84-13.3-15.009-15.53-25.775-17.11-82.423 31.13-175.966 103.05-216.873 17.97-10.222 33.6-18.426 53.87-23.449" fill="#f7f7f5"/><path d="M690.283 840.501c-21.13-15.094-29.15-42.712-19.39-66.775 9.77-24.063 34.76-38.288 60.43-34.395 25.68 3.894 45.33 24.89 47.52 50.766a56.131 56.131 0 0 1-88.56 50.404" fill="#899bc6"/><path d="M690.283 840.501c-21.13-15.094-29.15-42.712-19.39-66.775 9.77-24.063 34.76-38.288 60.43-34.395 25.68 3.894 45.33 24.89 47.52 50.766l-1.08-.152c-1.69-3.972-4.42-10.649-7.14-13.729-13.57-15.336-36.66-17.291-54.61-9.47a52.6 52.6 0 0 0-28.19 29.155c-4.66 11.868-5.13 24.726-.33 36.502.54 1.319 2.79 7.038 2.79 8.098" fill="#626596"/><path d="M936.813 679.198c2.48.206 5.97.685 8.35 1.294a17.82 17.82 0 0 1 11.46 9.335c5.43 11.198-2.7 19.814-12.43 24.205-27.5 1.195-30.47-29.083-7.38-34.834m-96.27 174.853c7.65-.82 15.05 2.09 18.81 9.11a19 19 0 0 1 1.03 15.37c-2.48 6.9-6.68 9.39-12.91 12.19-26.1-.19-26.96-24.26-6.93-36.67m-212.28 17.67c8.3-3.02 17.49 1.16 20.65 9.41s-.87 17.51-9.06 20.81a16.22 16.22 0 0 1-16.17-2.38c-4.56-3.66-6.8-9.49-5.85-15.26a16.19 16.19 0 0 1 10.43-12.58m227.05-315.732c16.99.254 21.05 18.794 6.35 29.409-18.52.388-22.97-20.329-6.35-29.409" fill="#a7c2ec"/></svg>