<svg height="800" width="800" xmlns="http://www.w3.org/2000/svg" viewBox="0 0 841.667 1010" xml:space="preserve"><g stroke-width="0"/><g stroke-linecap="round" stroke-linejoin="round"/><path fill="#a6dddd" d="M420.833 993.167c222.188 0 404-181.797 404-404.001V420.833c0-222.203-181.812-404-404-404-222.22 0-404 181.797-404 404v168.333c0 222.204 181.78 404.001 404 404.001"/><path fill="#73ff8b" d="M770.224 218.834H71.442c70.128-120.497 200.653-202 349.391-202 148.705 0 279.262 81.503 349.39 202"/><path fill="#fffffd" d="M151.5 639.667c46.291 0 84.166 37.875 84.166 84.166 0 .296-.099.56-.099.839a.2.2 0 0 0 .099.017c2.795-.313 5.523-.856 8.417-.856 41.656 0 75.75 34.095 75.75 75.75s-34.094 75.75-75.75 75.75c-2.894 0-5.622-.542-8.417-.854-2.794.312-5.556.854-8.416.854h-90.874c-38.467-38.27-69.274-84.2-90.019-135.226 6.444-4.963 13.612-9.007 21.436-11.737-.099-1.545-.46-2.991-.46-4.537 0-46.291 37.875-84.166 84.167-84.166"/><path fill="#fff" d="M118.129 381.783c-.066-1.028-.296-1.99-.296-3.033 0-27.872 22.62-50.5 50.5-50.5s50.5 22.628 50.5 50.5h16.833c27.782 0 50.5 22.727 50.5 50.5s-22.718 50.5-50.5 50.5h-101c-27.781 0-50.5-22.727-50.5-50.5 0-21.946 14.302-40.546 33.963-47.467"/><path fill="#37474f" d="M235.666 492.375h-101c-34.809 0-63.125-28.316-63.125-63.125 0-23.491 13.291-44.845 33.873-55.662 2.638-32.4 29.853-57.963 62.919-57.963 30.486 0 55.99 21.724 61.86 50.5h5.473c34.81 0 63.125 28.316 63.125 63.125s-28.315 63.125-63.125 63.125m-67.333-151.5c-20.886 0-37.875 16.99-37.875 37.875.041.288.255 1.932.272 2.228a12.63 12.63 0 0 1-8.41 12.715c-15.271 5.375-25.529 19.66-25.529 35.557 0 20.886 16.99 37.875 37.875 37.875h101c20.886 0 37.875-16.99 37.875-37.875s-16.99-37.875-37.875-37.875h-16.833c-6.97 0-12.625-5.655-12.625-12.625 0-20.886-16.99-37.875-37.875-37.875"/><path fill="#fffffd" d="M705.685 874.939 387.167 521.833V404H404l33.667 67.334L823.716 617.77v.017"/><path fill="#fffffd" d="M823.716 617.787a428 428 0 0 1-2.138 21.65 34 34 0 0 0-.263 1.939c-.69 5.294-1.512 10.522-2.367 15.765-14.433 84.216-55.07 159.785-113.263 217.797"/><path fill="#907973" d="m496.78 643.349 118.162 130.984H517.69c-37.02 0-67.334-30.312-67.334-67.333 0-29.688 19.63-54.758 46.424-63.651"/><path fill="#37474f" d="M420.833 1010C188.783 1010 0 821.217 0 589.166V420.833C0 188.784 188.783 0 420.833 0s420.834 188.783 420.834 420.834v168.332c0 232.05-188.783 420.834-420.834 420.834m0-976.333c-213.482 0-387.167 173.684-387.167 387.167v168.332c0 213.475 173.685 387.167 387.167 387.167 213.475 0 387.166-173.692 387.166-387.167V420.833c0-213.482-173.691-387.167-387.166-387.167"/><path fill="#37474f" d="M770.224 235.667H71.442V202h698.782zm-526.141 656.5c-2.811 0-5.523-.33-8.22-.69l-.197-.034-.205.034c-2.713.36-5.425.69-8.211.69h-90.874a16.8 16.8 0 0 1-11.87-4.9c-40.66-40.439-72.198-87.815-93.741-140.814a16.84 16.84 0 0 1 5.318-19.678c4.669-3.6 9.56-6.722 14.614-9.32 3.304-52.735 47.253-94.622 100.803-94.622 50.048 0 91.712 36.593 99.644 84.43 47.762 3.617 85.523 43.645 85.523 92.32 0 51.06-41.533 92.584-92.584 92.584m-8.417-34.522c.625 0 1.25.033 1.866.1l2.902.377c1.2.164 2.4.378 3.649.378 32.483 0 58.917-26.434 58.917-58.917 0-32.482-26.434-58.916-58.917-58.916-1.249 0-2.45.214-3.65.378l-2.9.378c-3.198.394-6.617-.263-9.527-1.71a16.85 16.85 0 0 1-9.272-15.041c0-.51.034-1.118.09-1.727-.468-36.723-30.493-66.445-67.324-66.445-37.127 0-67.334 30.215-67.334 67.333.222 1.315.354 2.384.428 3.469a16.83 16.83 0 0 1-11.261 16.965 54 54 0 0 0-5.852 2.432c18.617 41.492 44.097 79.022 75.922 111.801h83.847c1.24 0 2.44-.214 3.65-.378l2.9-.378a17 17 0 0 1 1.866-.099m0-361.061h-101c-37.127 0-67.333-30.207-67.333-67.334 0-24.288 13.315-46.44 34.11-58.284 3.872-33.477 32.393-59.55 66.89-59.55 31.316 0 57.709 21.494 65.205 50.5h2.128c37.127 0 67.334 30.207 67.334 67.334s-30.207 67.334-67.334 67.334m-67.333-151.5c-18.567 0-33.667 15.098-33.667 33.666l.264 1.956.813 12.724-12.025 4.233C110.13 402.446 101 415.137 101 429.25c0 18.568 15.099 33.667 33.666 33.667h101c18.568 0 33.667-15.1 33.667-33.667s-15.1-33.666-33.667-33.666H202V378.75c0-18.568-15.1-33.666-33.667-33.666M693.19 886.216 370.333 528.31V387.166h44.072l35.377 70.762 379.9 144.093-11.934 31.498-392.197-148.78L404 441.637v73.728l314.179 348.297z"/><path fill="#37474f" d="M652.8 791.167H517.69c-46.406 0-84.166-37.76-84.166-84.167 0-36.133 23.293-68.122 57.963-79.63l10.422-3.452zm-160.36-127.5c-15.435 8.91-25.25 25.283-25.25 43.333 0 27.848 22.653 50.5 50.5 50.5h59.394z"/></svg>